<svg width="1440" height="120" viewBox="0 0 1440 120" fill="none" xmlns="http://www.w3.org/2000/svg">
<path d="M0 0H1440V58C1440 92.2417 1412.24 120 1378 120H55C24.6243 120 0 95.3757 0 65V0Z" fill="#ED5353"/>
<path d="M0 65.6116L332.381 120H54.3885C24.3506 120 0 95.6495 0 65.6116V65.6116Z" fill="#FF6B6B"/>
<path d="M484.762 0H856.19L584.442 75.7554L572.926 79.0401C549.223 85.8004 524.031 74.9919 512.597 53.1566L484.762 0Z" fill="#FF6B6B"/>
<path d="M990.476 0H1353.81L1366.19 59.1367L1374.91 102.01C1376.8 111.305 1369.7 120 1360.21 120H1116.81C1093.4 120 1070.17 115.918 1048.16 107.939V107.939C1018.97 97.352 998.32 71.0976 994.914 40.2277L990.476 0Z" fill="#FF6B6B"/>
</svg>
