<svg width="1512" height="139" viewBox="0 0 1512 139" fill="none" xmlns="http://www.w3.org/2000/svg">
<path d="M0 0H1512V77C1512 111.242 1484.24 139 1450 139H55C24.6243 139 0 114.376 0 84V0Z" fill="#ED5353"/>
<path d="M0 76L349 139H55C24.6243 139 0 114.376 0 84V76Z" fill="#FF6B6B"/>
<path d="M509 0H899L613.665 87.75L602.015 91.4154C577.263 99.2033 550.558 87.5523 539.432 64.1111L509 0Z" fill="#FF6B6B"/>
<path d="M1040 0H1421.5L1434.5 68.5L1444.23 121.28C1445.93 130.498 1438.85 139 1429.48 139H1175.73C1149.16 139 1122.82 133.928 1098.14 124.057V124.057C1068.86 112.346 1048.53 85.3189 1045.39 53.9409L1040 0Z" fill="#FF6B6B"/>
</svg>
